<svg xmlns="http://www.w3.org/2000/svg" viewBox="0 0 57.67 34.74"><title>test</title><rect x="17.67" y="20.93" width="1.9" height="7.1" style="fill:#fff"/><path d="M24.87,25.68c0-1.39-4.06-1.21-4.06-4,0-1.46,1.28-2.6,3.11-2.6a3.46,3.46,0,0,1,2.68,1.06l-1.19,1.42a2,2,0,0,0-1.65-.82,0.85,0.85,0,0,0-1,.79c0,1.42,4,1.21,4,4,0,1.32-1.09,2.6-3.33,2.6a4.28,4.28,0,0,1-3.05-1.09l1.09-1.58a3.2,3.2,0,0,0,2.21,1.06,0.94,0.94,0,0,0,1.13-.86" style="fill:#fff"/><path d="M31.41,19.1a3.49,3.49,0,0,1,2.75,1l-1.26,1.4a1.91,1.91,0,0,0-1.63-.81c-1.18,0-1.78.89-1.78,2.87,0,1.82.63,2.91,1.95,2.91A2,2,0,0,0,33,25.76l1.05,1.36a3.57,3.57,0,0,1-2.79,1c-2.7,0-3.76-1.81-3.76-4.44,0-2.78,1.32-4.61,3.9-4.61" style="fill:#fff"/><path d="M39.52,19.22L42.2,28h-2l-0.55-2h-3l-0.57,2H34.18l2.67-8.81h2.68Zm-2.4,5.2h2.07l-0.34-1.23c-0.34-1.22-.51-1.86-0.67-2.64H38.14C38,21.3,37.8,22,37.48,23.14Z" style="fill:#fff"/><path d="M49.12,21.83c0,1.65-.87,3.07-3.44,3.07H44.95V28H43V19.22h3c1.79,0,3.08.67,3.08,2.61m-4.17-1v2.49h0.63c1.28,0,1.56-.55,1.56-1.23a1.16,1.16,0,0,0-1.41-1.26H44.95Z" style="fill:#fff"/><polygon points="50.19 28.03 50.19 19.22 55.41 19.22 55.41 20.8 52.1 20.8 52.1 22.76 54.94 22.76 54.94 24.34 52.1 24.34 52.1 26.44 55.55 26.44 55.55 28.03 50.19 28.03" style="fill:#fff"/><path d="M3.93,21.7a2.43,2.43,0,1,0,2.43,2.43A2.44,2.44,0,0,0,3.93,21.7m0,3.66a1.22,1.22,0,1,1,1.22-1.22,1.22,1.22,0,0,1-1.22,1.22" style="fill:#fff"/><path d="M24.94,9.23a2.44,2.44,0,0,0-2.43,2.43c0,0.06,0,.12,0,0.19l-4.38,1.49a0.61,0.61,0,0,0,.2,1.18,0.61,0.61,0,0,0,.19,0L22.91,13a2.43,2.43,0,1,0,2-3.77m0,3.66a1.22,1.22,0,1,1,1.22-1.22,1.22,1.22,0,0,1-1.22,1.22" style="fill:#fff"/><path d="M13.56,11.11V6.62a2.43,2.43,0,1,0-1.21,0v4.49a4.06,4.06,0,0,0-3,2.07L6.88,11.39a1.76,1.76,0,1,0-.77.93L9,14.37a4.08,4.08,0,0,0-.07.74,4,4,0,0,0,.79,2.4l-3.4,3.4a0.61,0.61,0,0,0,.86.86l3.4-3.4a4,4,0,0,0,1.8.75V29.51a1.76,1.76,0,1,0,1.21,0V19.12a4.05,4.05,0,0,0,0-8m-8.33.24a0.54,0.54,0,1,1,.54-0.54,0.55,0.55,0,0,1-.54.54m6.51-7.09A1.22,1.22,0,1,1,13,5.48a1.22,1.22,0,0,1-1.22-1.22M13,31.7a0.54,0.54,0,0,1-.11-1.08h0.22A0.54,0.54,0,0,1,13,31.7M13,18a2.84,2.84,0,0,1-2.73-3.64v0A2.84,2.84,0,1,1,13,18" style="fill:#fff"/><path d="M18.54,16.61a1.74,1.74,0,1,0,1.74,1.74,1.75,1.75,0,0,0-1.74-1.74m0,2.36a0.62,0.62,0,1,1,.62-0.62,0.62,0.62,0,0,1-.62.62" style="fill:#fff"/></svg>